<svg width="87" height="87" viewBox="0 0 87 87" fill="none" xmlns="http://www.w3.org/2000/svg">
<g filter="url(#filter0_d_118_164)">
<circle cx="41.0582" cy="39.0582" r="36.0582" fill="white"/>
<circle cx="41.0582" cy="39.0582" r="37.5582" stroke="#E3F020" stroke-width="3"/>
</g>
<path d="M16.3451 52.5249C18.1728 56.0583 20.3742 58.4337 21.3826 59.4506C22.602 60.6808 25.8238 63.7036 30.827 65.7474C32.8295 66.5654 41.4004 70.0653 50.9761 66.3771C57.658 63.8035 61.3177 59.0812 62.9393 56.9326C64.1466 55.3331 67.4141 50.6672 68.6064 43.7101C69.0307 41.2348 69.8123 36.335 67.9767 30.4875C65.545 22.7402 60.1389 18.4915 58.5322 17.265C50.9604 11.483 42.7196 11.4324 39.6418 11.5978C30.9526 12.0649 25.1514 16.3122 23.9006 17.265C22.0279 18.6905 16.0891 23.5888 13.8264 32.3766C11.2521 42.3751 15.2427 50.3941 16.3451 52.5256V52.5249Z" fill="#FEFEFE"/>
<mask id="mask0_118_164" style="mask-type:luminance" maskUnits="userSpaceOnUse" x="12" y="11" width="58" height="58">
<path d="M16.3451 52.5249C18.1728 56.0583 20.3742 58.4337 21.3826 59.4506C22.602 60.6808 25.8238 63.7036 30.827 65.7474C32.8295 66.5654 41.4004 70.0653 50.9761 66.3771C57.658 63.8035 61.3177 59.0812 62.9393 56.9326C64.1466 55.3331 67.4141 50.6672 68.6064 43.7101C69.0307 41.2348 69.8123 36.335 67.9767 30.4875C65.545 22.7402 60.1389 18.4915 58.5322 17.265C50.9604 11.483 42.7196 11.4324 39.6418 11.5978C30.9526 12.0649 25.1514 16.3122 23.9006 17.265C22.0279 18.6905 16.0891 23.5888 13.8264 32.3766C11.2521 42.3751 15.2427 50.3941 16.3451 52.5256V52.5249Z" fill="white"/>
</mask>
<g mask="url(#mask0_118_164)">
<path d="M45.7175 56.161C42.6747 55.9991 39.8016 56.094 36.8108 56.1161C35.1963 56.1282 33.6559 56.852 32.4843 57.8425C31.7847 58.4344 31.4845 59.2025 30.9318 60.0004C28.5315 58.6748 26.5412 56.8684 24.9902 54.6599C24.3798 53.7906 23.4306 53.4719 22.5399 53.996C21.6835 54.5002 21.4032 55.6419 22.0486 56.5269C24.0111 59.2189 27.2907 62.4885 30.5147 63.4063L30.9982 65.9C26.8692 64.3583 23.3365 61.923 20.4726 58.9094C7.98455 45.7645 10.7172 24.61 26.1055 14.9894C34.824 9.53835 46.0606 9.20318 55.3289 14.4866C63.5903 19.196 69.2567 28.12 69.6368 38.0208C69.8864 44.5216 68.0045 50.7456 64.2343 56.0876C63.3514 57.3384 63.2815 61.5828 63.4071 63.3057C63.6766 66.9996 65.095 70.3577 67.0525 73.5539C61.8881 74.1664 54.9916 69.3601 51.0509 66.5746C51.257 64.6628 51.9259 64.0887 51.6663 61.7333C51.334 58.719 48.8959 56.3315 45.7183 56.1624L45.7175 56.161ZM32.1798 54.7426L49.9677 54.7369C55.8566 54.7348 60.6651 49.9648 60.8612 44.1065C61.0067 39.7587 60.2472 34.3939 57.4119 31.0238C54.3933 27.4354 50.2201 26.4648 45.7739 26.0056C45.2312 24.2663 43.2245 25.1634 41.5137 24.9188C41.5736 23.8092 41.4439 22.7616 41.6107 21.6977C42.853 21.3397 43.5554 20.2707 43.422 19.1697C43.2751 17.9552 42.4329 17.1893 41.3084 17.0931C40.0825 16.9875 39.087 17.7356 38.8388 18.9329C38.6135 20.0204 39.1933 21.1122 40.2886 21.5572C40.5204 21.6513 40.6815 21.8595 40.6765 22.1255C40.6594 23.0497 40.7293 23.9204 40.6509 24.8874C39.1105 25.2376 36.9626 24.2114 36.4399 25.9706C29.7844 26.728 24.6522 28.6983 22.4208 35.5691C21.6314 37.9994 21.3861 40.4347 21.3326 42.9912C21.2841 45.2796 21.7056 47.3969 22.9193 49.39C24.8183 52.5085 28.4302 54.7441 32.1791 54.7426H32.1798Z" fill="#9CCB44"/>
<path d="M32.1799 54.7426C28.431 54.7441 24.8191 52.5085 22.9201 49.39C21.7063 47.3969 21.2849 45.2796 21.3334 42.9912C21.3869 40.4347 21.6322 37.9994 22.4216 35.5691C24.6529 28.699 29.7852 26.7287 36.4407 25.9706C36.9627 24.2107 39.1113 25.2376 40.6516 24.8874C40.7301 23.9197 40.6602 23.0497 40.6773 22.1255C40.6823 21.8595 40.5211 21.6513 40.2894 21.5572C39.194 21.1122 38.6143 20.0211 38.8396 18.9329C39.0878 17.7356 40.0833 16.9883 41.3091 17.0931C42.4337 17.1894 43.2759 17.9552 43.4228 19.1697C43.5562 20.2707 42.8537 21.3397 41.6115 21.6977C41.4446 22.7616 41.5744 23.8092 41.5145 24.9188C43.2253 25.1634 45.232 24.2663 45.7747 26.0056C50.2209 26.4648 54.3941 27.4354 57.4127 31.0238C60.248 34.3946 61.0075 39.7594 60.862 44.1065C60.6659 49.9648 55.8574 54.7348 49.9685 54.7369L32.1806 54.7426H32.1799ZM50.9005 45.3802C52.9193 45.3816 55.5486 44.7227 56.5648 43.0148C57.9204 40.7371 57.2922 37.9153 55.15 36.3172C53.554 35.127 51.5944 34.4638 49.5242 34.4638L32.4038 34.4603C28.5722 34.4595 23.7936 36.9711 24.6922 41.4866C24.9489 42.7766 25.6741 43.8242 26.8586 44.4353C28.0288 45.04 29.3067 45.3638 30.7094 45.3645L50.9012 45.3795L50.9005 45.3802ZM46.0292 48.4665C45.6656 48.331 45.3931 48.5143 45.1157 48.8095C43.2481 50.7956 38.9109 50.7406 37.116 48.8045C36.8158 48.4808 36.4842 48.3082 36.107 48.5236C34.9517 49.1839 37.0076 50.6522 38.1529 51.0929C43.3073 53.0775 47.909 49.1675 46.03 48.4658L46.0292 48.4665Z" fill="#FEFEFE"/>
<path d="M50.9005 45.3802L30.7087 45.3652C29.306 45.3645 28.0281 45.0407 26.8579 44.436C25.6741 43.8242 24.9482 42.7766 24.6915 41.4873C23.7929 36.9718 28.5715 34.4595 32.4031 34.461L49.5235 34.4645C51.5937 34.4645 53.554 35.1277 55.1493 36.3179C57.2915 37.916 57.9197 40.7371 56.5641 43.0155C55.5479 44.7227 52.9187 45.3823 50.8998 45.3809L50.9005 45.3802ZM33.87 36.3871C31.8247 36.6766 30.5832 38.6256 30.907 40.4925C31.2386 42.4072 33.0335 43.6566 34.9275 43.387C36.8693 43.111 38.2021 41.2826 37.9012 39.3273C37.6181 37.4889 35.9194 36.0969 33.8707 36.3871H33.87ZM51.2478 39.1504C50.9284 37.1986 49.0871 36.1446 47.3428 36.3707C45.5985 36.5967 44.3171 38.1214 44.2857 39.8771C44.2529 41.729 45.6342 43.2102 47.464 43.4184C49.2012 43.6159 50.949 42.425 51.2642 40.633C51.3398 40.203 51.3277 39.6403 51.2478 39.1497V39.1504Z" fill="#252624"/>
<path d="M46.0292 48.4665C47.9083 49.1675 43.3066 53.0783 38.1522 51.0937C37.0069 50.653 34.951 49.1839 36.1063 48.5243C36.4835 48.309 36.8158 48.4815 37.1153 48.8053C38.9102 50.7414 43.2474 50.7956 45.115 48.8103C45.3924 48.515 45.6648 48.3318 46.0285 48.4673L46.0292 48.4665Z" fill="#252624"/>
<path d="M51.2478 39.1504C51.3284 39.641 51.3398 40.2037 51.2642 40.6337C50.949 42.4265 49.2011 43.6174 47.464 43.4191C45.6348 43.2109 44.2528 41.729 44.2856 39.8778C44.317 38.1214 45.5357 36.6053 47.3428 36.3714C49.1498 36.1375 50.9276 37.1993 51.2478 39.1511V39.1504ZM47.0846 37.3641C45.6035 37.7905 44.8946 39.3287 45.2861 40.5845C45.7418 42.0478 47.1809 42.8023 48.5465 42.4151C49.997 42.0043 50.7315 40.623 50.3678 39.2053C50.0041 37.7877 48.6128 36.9241 47.0846 37.3641Z" fill="#9CCB44"/>
<path d="M33.8699 36.3871C35.9187 36.0969 37.6173 37.4889 37.9004 39.3273C38.2014 41.2826 36.8693 43.1111 34.9267 43.387C33.0327 43.6566 31.2385 42.4072 30.9062 40.4925C30.5824 38.6256 31.824 36.6766 33.8692 36.3871H33.8699ZM33.6103 37.3755C32.085 37.8483 31.4232 39.415 31.9402 40.827C32.4116 42.1127 33.8564 42.8237 35.1792 42.4122C36.5712 41.9786 37.3592 40.4939 36.9399 39.1519C36.5041 37.7577 35.0936 36.9162 33.6096 37.3762L33.6103 37.3755Z" fill="#9CCB44"/>
<path d="M47.0846 37.3641C48.6128 36.9241 50.012 37.819 50.3678 39.2053C50.7237 40.5916 49.997 42.0043 48.5465 42.415C47.1802 42.8023 45.7418 42.0478 45.2862 40.5845C44.8954 39.3287 45.6035 37.7898 47.0846 37.3641ZM48.3939 38.4751C47.9397 38.5008 47.6701 38.8901 47.7172 39.2716C47.7678 39.681 48.1215 39.9684 48.5422 39.9056C48.918 39.85 49.2054 39.5013 49.1455 39.0442C49.1077 38.7575 48.8011 38.4516 48.3939 38.4751Z" fill="#252624"/>
<path d="M33.6103 37.3755C35.0943 36.9155 36.5049 37.757 36.9406 39.1511C37.3599 40.4939 36.5719 41.9786 35.1799 42.4115C33.7879 42.8444 32.4116 42.112 31.9409 40.8262C31.4239 39.415 32.085 37.8476 33.611 37.3748L33.6103 37.3755ZM33.5954 38.5051C33.1069 38.6348 32.9828 39.1305 33.1447 39.5041C33.2794 39.8158 33.6417 39.9784 34.0475 39.8635C34.362 39.7744 34.6023 39.3751 34.4818 38.96C34.3962 38.6641 34.0553 38.3824 33.5954 38.5051Z" fill="#252624"/>
<path d="M48.3939 38.4751C48.8011 38.4516 49.1085 38.7575 49.1455 39.0442C49.2054 39.5013 48.9181 39.85 48.5422 39.9056C48.1215 39.9676 47.7678 39.6803 47.7172 39.2716C47.6701 38.8901 47.9389 38.5015 48.3939 38.4751Z" fill="#FEFEFE"/>
<path d="M33.5954 38.5051C34.0553 38.3824 34.3962 38.6641 34.4818 38.96C34.6016 39.3751 34.3613 39.7744 34.0475 39.8635C33.6417 39.9784 33.2795 39.8158 33.1447 39.5041C32.9828 39.1297 33.1069 38.6348 33.5954 38.5051Z" fill="#FEFEFE"/>
</g>
<defs>
<filter id="filter0_d_118_164" x="0" y="0" width="86.1164" height="86.1164" filterUnits="userSpaceOnUse" color-interpolation-filters="sRGB">
<feFlood flood-opacity="0" result="BackgroundImageFix"/>
<feColorMatrix in="SourceAlpha" type="matrix" values="0 0 0 0 0 0 0 0 0 0 0 0 0 0 0 0 0 0 127 0" result="hardAlpha"/>
<feOffset dx="2" dy="4"/>
<feGaussianBlur stdDeviation="2"/>
<feComposite in2="hardAlpha" operator="out"/>
<feColorMatrix type="matrix" values="0 0 0 0 0 0 0 0 0 0 0 0 0 0 0 0 0 0 0.1 0"/>
<feBlend mode="normal" in2="BackgroundImageFix" result="effect1_dropShadow_118_164"/>
<feBlend mode="normal" in="SourceGraphic" in2="effect1_dropShadow_118_164" result="shape"/>
</filter>
</defs>
</svg>
